<svg width="115" height="115" viewBox="0 0 115 115" fill="none" xmlns="http://www.w3.org/2000/svg">
<path d="M53.8147 41.7231C41.1893 41.8839 0 43.4778 0 57.1917C0 71.9339 47.5635 72.6804 57.0992 72.6804C66.6338 72.6804 114.197 71.9339 114.197 57.1917C114.197 50.6542 105.615 47.6605 99.1611 45.9779C92.1215 44.1422 82.6123 42.8112 72.1132 42.1612C72.2848 44.953 72.4055 47.8224 72.4797 50.7396C91.6652 51.9919 101.812 55.2329 104.932 57.2028C100.707 59.937 84.4174 64.1342 57.0992 64.1342C29.7323 64.1342 13.4337 59.9215 9.24227 57.1884C13.2211 54.573 28.131 50.5977 53.9232 50.2671C56.2797 50.2383 58.1656 48.3005 58.1346 45.9402C58.1047 43.5998 56.2011 41.722 53.8701 41.722C53.8512 41.722 53.8335 41.722 53.8147 41.7231Z" fill="url(#paint0_linear_1206_52940)"/>
<path d="M41.6346 57.1917C41.6346 66.7407 42.3799 114.381 57.0993 114.381C63.6229 114.381 66.6118 105.792 68.2917 99.3296C70.1255 92.2752 71.4555 82.7418 72.1055 72.2178C68.9439 72.4075 66.0204 72.5218 63.541 72.5894C62.2907 91.8105 59.0538 101.977 57.0871 105.103C54.3574 100.869 50.1659 84.5531 50.1659 57.1917C50.1659 29.8016 54.3663 13.48 57.0949 9.26727C59.7149 13.3546 63.7979 28.9364 64.0216 55.0399C64.0415 57.3881 65.9473 59.277 68.2873 59.277H68.3249C70.6803 59.2559 72.574 57.3259 72.554 54.9678C72.4344 41.0087 71.1831 27.9293 69.0303 18.1407C66.3083 5.76447 62.5167 0 57.0993 0C42.3799 0 41.6346 47.6406 41.6346 57.1917Z" fill="url(#paint1_linear_1206_52940)"/>
<defs>
<linearGradient id="paint0_linear_1206_52940" x1="0.000147283" y1="57.1898" x2="114.197" y2="57.1898" gradientUnits="userSpaceOnUse">
<stop stop-color="#45C3F3"/>
<stop offset="0.5" stop-color="#1671C2"/>
<stop offset="0.959876" stop-color="#2056AE"/>
<stop offset="1" stop-color="#2056AE"/>
</linearGradient>
<linearGradient id="paint1_linear_1206_52940" x1="57.0941" y1="114.382" x2="57.0941" y2="0.000149989" gradientUnits="userSpaceOnUse">
<stop stop-color="#2056AE"/>
<stop offset="0.25" stop-color="#2056AE"/>
<stop offset="0.280093" stop-color="#2056AE"/>
<stop offset="0.625" stop-color="#A32B9B"/>
<stop offset="1" stop-color="#ED1443"/>
</linearGradient>
</defs>
</svg>
