<svg width="478" height="456" viewBox="0 0 478 456" fill="none" xmlns="http://www.w3.org/2000/svg">
<path fill-rule="evenodd" clip-rule="evenodd" d="M324.349 36.2951C324.349 61.4748 302.513 81.887 275.577 81.887H202.187C175.251 81.887 153.415 61.4748 153.415 36.2951C153.415 16.7537 136.49 0.912201 115.613 0.912201C94.7348 0.912201 77.81 16.7537 77.81 36.2951V70.9488C77.81 76.9898 72.5712 81.887 66.1089 81.887C29.7996 81.887 0.365112 109.437 0.365112 143.422V393.655C0.365112 427.64 29.7995 455.19 66.1088 455.19H411.957C448.266 455.19 477.7 427.64 477.7 393.655V143.423C477.7 109.437 448.266 81.887 411.957 81.887C405.328 81.887 399.954 76.8638 399.954 70.6673V36.2951C399.954 16.7537 383.03 0.912201 362.152 0.912201C341.274 0.912201 324.349 16.7537 324.349 36.2951ZM127.118 122.445V36.2951C127.118 30.3477 121.967 25.5264 115.613 25.5264C109.259 25.5264 104.107 30.3477 104.107 36.2951V122.445C104.107 128.392 109.259 133.214 115.613 133.214C121.967 133.214 127.118 128.392 127.118 122.445ZM324.349 122.445C324.349 113.639 316.713 106.501 307.294 106.501H170.471C161.051 106.501 153.415 113.639 153.415 122.445C153.415 141.986 136.49 157.828 115.613 157.828C94.7348 157.828 77.81 141.986 77.81 122.445V117.439C77.81 111.398 72.5712 106.501 66.1089 106.501C44.3233 106.501 26.6626 123.031 26.6626 143.422V393.655C26.6626 414.046 44.3233 430.576 66.1088 430.576H411.957C433.742 430.576 451.403 414.046 451.403 393.655V143.423C451.403 123.031 433.742 106.501 411.957 106.501C405.328 106.501 399.954 111.524 399.954 117.721V122.445C399.954 141.986 383.03 157.828 362.152 157.828C341.274 157.828 324.349 141.986 324.349 122.445ZM373.657 122.445C373.657 128.392 368.506 133.214 362.152 133.214C355.798 133.214 350.647 128.392 350.647 122.445V36.2951C350.647 30.3477 355.798 25.5264 362.152 25.5264C368.506 25.5264 373.657 30.3477 373.657 36.2951V122.445Z" fill="url(#paint0_linear_313_1348)"/>
<path d="M231.029 236.041C195.583 236.483 113.15 240.796 113.15 271.205C113.15 303.877 208.787 306.42 238.1 306.42C267.413 306.42 363.051 303.877 363.051 271.205C363.051 255.675 343.578 248.876 328.93 245.11C314.15 241.316 294.721 238.569 272.658 237.123C273.159 244.605 273.499 252.341 273.661 260.244C306.495 262.556 326.068 267.553 335.077 271.248C321.942 276.63 288.674 283.401 238.1 283.401C187.308 283.401 154.016 276.583 140.984 271.191C153.314 266.029 183.744 259.657 231.323 259.053C234.439 259.014 237.352 257.779 239.526 255.58C241.7 253.381 242.875 250.474 242.832 247.398C242.753 241.136 237.527 236.041 231.029 236.041Z" fill="url(#paint1_linear_313_1348)"/>
<path d="M202.427 271.205C202.427 300.139 204.999 394.542 238.099 394.542C253.836 394.542 260.72 375.327 264.528 360.88C268.322 346.513 271.174 326.85 272.624 305.345C263.97 305.885 255.938 306.165 249.211 306.299C246.865 338.72 241.8 358.033 238.059 366.929C232.608 353.963 225.744 321.118 225.744 271.205C225.744 221.2 232.622 188.362 238.081 175.431C243.322 187.97 250.021 219.305 250.436 266.683C250.49 272.97 255.72 278.093 262.196 278.093C268.619 278.033 273.806 272.828 273.753 266.481C273.495 236.818 270.787 209.001 266.137 188.15C260.004 160.669 251.095 147.872 238.099 147.872C204.999 147.872 202.427 242.271 202.427 271.205Z" fill="url(#paint2_linear_313_1348)"/>
<defs>
<linearGradient id="paint0_linear_313_1348" x1="238.091" y1="394.541" x2="238.091" y2="147.87" gradientUnits="userSpaceOnUse">
<stop stop-color="#2056AE"/>
<stop offset="0.25" stop-color="#2056AE"/>
<stop offset="0.280093" stop-color="#2056AE"/>
<stop offset="0.625" stop-color="#A32B9B"/>
<stop offset="1" stop-color="#ED1443"/>
</linearGradient>
<linearGradient id="paint1_linear_313_1348" x1="0.366966" y1="227.932" x2="477.702" y2="227.932" gradientUnits="userSpaceOnUse">
<stop stop-color="#45C3F3"/>
<stop offset="0.5" stop-color="#1671C2"/>
<stop offset="0.959876" stop-color="#2056AE"/>
<stop offset="1" stop-color="#2056AE"/>
</linearGradient>
<linearGradient id="paint2_linear_313_1348" x1="238.091" y1="394.541" x2="238.091" y2="147.87" gradientUnits="userSpaceOnUse">
<stop stop-color="#2056AE"/>
<stop offset="0.25" stop-color="#2056AE"/>
<stop offset="0.280093" stop-color="#2056AE"/>
<stop offset="0.625" stop-color="#A32B9B"/>
<stop offset="1" stop-color="#ED1443"/>
</linearGradient>
</defs>
</svg>
