<svg width="462" height="326" viewBox="0 0 462 326" fill="none" xmlns="http://www.w3.org/2000/svg">
<g filter="url(#filter0_dd_107_22)">
<path d="M33.9744 319C24.3162 319 17.0726 316.333 12.2436 310.998C7.41453 305.663 5 300.207 5 294.629C5 288.082 6.20727 283.111 8.6218 279.716C11.0363 276.321 15.7447 273.775 22.7468 272.077C31.922 270.137 41.4594 267.712 51.359 264.803C61.5 261.893 71.1581 258.861 80.3333 255.709C89.75 252.314 97.9594 248.919 104.962 245.524C111.964 241.887 117.034 238.492 120.173 235.339C116.31 233.157 110.153 230.611 101.702 227.701C93.2511 224.549 83.8344 220.911 73.4519 216.789C63.3109 212.424 53.5321 207.331 44.1154 201.512C34.6987 195.692 26.9722 188.902 20.9359 181.142C14.8996 173.382 11.8814 164.531 11.8814 154.589C11.8814 140.767 15.3825 127.793 22.3846 115.669C29.3868 103.544 38.6827 92.2678 50.2724 81.8406C61.8622 71.4134 74.4177 61.8348 87.9391 53.105C101.702 44.3752 115.344 36.4942 128.865 29.4619C142.628 22.1871 154.942 15.761 165.808 10.1836C169.912 7.75865 173.776 6.18244 177.397 5.45497C181.261 4.48499 184.762 4 187.901 4C198.766 4 206.251 6.66743 210.356 12.0023C214.46 17.3372 216.513 22.7933 216.513 28.3707C216.513 32.2506 214.702 36.8579 211.08 42.1928C207.458 47.2852 201.663 52.0138 193.695 56.3787C185.969 60.7436 175.707 63.896 162.91 65.836C160.737 66.0785 158.806 66.321 157.115 66.5635C147.457 71.4133 137.075 77.2332 125.968 84.023C114.861 90.8129 104.358 97.9665 94.4583 105.484C84.8002 112.759 76.8323 120.033 70.5545 127.308C64.2767 134.583 61.1378 141.13 61.1378 146.95C61.1378 153.498 63.7938 159.439 69.1058 164.774C74.4177 169.866 81.1784 174.595 89.3878 178.96C97.8387 183.082 106.652 187.083 115.827 190.963C125.244 194.843 134.057 198.844 142.266 202.967C150.717 206.846 157.598 211.211 162.91 216.061C168.222 220.911 170.878 226.367 170.878 232.43C170.878 240.674 168.101 248.555 162.548 256.073C156.995 263.59 152 265 142 277.069C133.066 283.374 122.105 289.173 111.481 294.266C100.857 299.358 90.3536 303.723 79.9711 307.36C69.8301 311.24 60.6549 314.15 52.4455 316.09C44.2361 318.03 38.0791 319 33.9744 319Z" fill="#2667D9"/>
<path d="M215.229 308.451C209.675 308.451 204.404 309.107 199.817 304.5C195.471 300.135 193.498 289.779 193.498 279.352C193.498 271.592 194.101 260.801 195.309 246.979C196.757 232.914 199.413 214.849 203.277 192.782C194.826 210.241 186.013 225.761 176.837 239.341C167.662 252.92 158.608 263.59 149.674 271.35C140.982 278.867 132.652 282.626 124.684 282.626C111.887 282.626 101.746 278.746 94.2606 270.986C86.7756 262.984 83.033 248.07 83.033 226.246C83.033 215.819 83.8781 204.058 85.5683 190.963C87.4999 177.868 89.9145 164.774 92.8119 151.679C95.7093 138.584 98.6068 126.944 101.504 116.76C104.643 106.332 107.42 98.5727 109.834 93.4803C111.766 89.1154 114.18 85.7205 117.078 83.2956C120.217 80.8706 124.201 79.6582 129.03 79.6582C136.756 79.6582 142.672 82.2043 146.777 87.2967C150.881 92.3891 152.934 97.6027 152.934 102.938C152.934 107.06 151.968 113.001 150.036 120.761C148.346 128.521 146.173 137.129 143.517 146.587C141.102 156.044 138.567 165.743 135.911 175.686C133.255 185.628 130.961 194.964 129.03 203.694C127.34 212.424 126.495 219.82 126.495 225.882C126.495 233.399 129.392 237.158 135.187 237.158C138.567 237.158 142.913 233.884 148.225 227.337C153.779 220.79 159.574 212.06 165.61 201.148C171.888 189.993 178.165 177.868 184.443 164.774C190.962 151.436 196.878 137.978 202.19 124.398C207.743 110.576 212.452 97.8452 216.315 86.2055C218.73 78.9307 221.989 73.8383 226.094 70.9284C230.199 68.0185 234.907 66.5635 240.219 66.5635C248.428 66.5635 254.706 68.8672 259.052 73.4746C263.64 78.082 265.934 84.6293 265.934 93.1166C265.934 96.9965 265.33 103.544 264.123 112.759C262.915 121.973 261.346 132.764 259.414 145.132C257.724 157.499 255.672 170.593 253.257 184.416C250.843 198.238 248.428 211.817 246.014 225.155C243.841 238.492 241.668 250.738 239.495 261.892C237.321 272.805 235.511 281.535 234.062 288.082C231.647 297.782 228.75 303.602 225.37 305.542C221.989 307.482 218.609 308.451 215.229 308.451Z" fill="black"/>
<path d="M216.513 310.998C210.718 310.998 205.647 309.3 201.301 305.905C196.955 302.51 194.782 295.235 194.782 284.081C194.782 278.988 196.593 270.865 200.215 259.71C203.836 248.555 208.666 235.461 214.702 220.426C220.98 205.149 227.982 189.023 235.708 172.048C243.435 155.074 251.523 138.22 259.974 121.488C268.425 104.756 276.635 89.2367 284.603 74.9295C292.571 60.6224 299.935 48.4976 306.696 38.5554C313.698 28.3706 319.372 21.5808 323.718 18.1859C329.996 13.5785 336.274 11.2748 342.551 11.2748C345.932 11.2748 349.191 11.6386 352.33 12.3661C355.711 13.0936 358.487 14.306 360.66 16.0035C365.731 19.1559 370.198 25.2182 374.061 34.1905C378.166 42.9203 381.787 53.4688 384.926 65.836C388.307 78.2032 391.083 91.5404 393.256 105.848C395.671 119.912 397.723 133.856 399.413 147.678C408.589 146.465 414.866 145.859 418.247 145.859C425.49 145.859 431.889 146.95 437.442 149.133C442.996 151.073 445.893 155.195 446.134 161.5C446.617 167.562 444.686 172.655 440.34 176.777C436.235 180.899 430.923 183.931 424.404 185.87C421.506 186.84 414.504 188.417 403.397 190.599C404.122 202.966 404.484 213.394 404.484 221.881C404.484 243.463 401.915 260.118 399.5 272C397.327 283.882 395.792 292.447 392.17 297.539C388.79 302.632 385.168 305.663 381.305 306.633C377.683 307.845 374.423 308.451 371.526 308.451C371.284 308.451 371.043 308.451 370.801 308.451C363.799 308.451 368.99 303.396 360.298 304.298C357.159 300.661 351.606 289.331 351.606 280.844C351.606 280.844 351 271.5 350.5 260.5C350 249.5 350.399 242.008 350.157 232.066C349.916 222.123 349.433 211.575 348.708 200.42C334.463 202.845 320.217 205.27 305.971 207.695C291.967 209.877 279.894 211.817 269.753 213.515C265.165 224.427 261.182 234.248 257.801 242.978C254.421 251.465 252.127 258.134 250.92 262.984C247.298 274.866 243.918 284.202 240.779 290.992C237.64 297.539 234.622 302.147 231.724 304.814C229.068 307.724 226.533 309.421 224.119 309.906C221.704 310.634 219.169 310.998 216.513 310.998ZM289.673 168.775C299.814 166.35 309.593 164.167 319.01 162.227C328.426 160.045 337.36 158.105 345.811 156.407C344.604 141.373 343.155 126.702 341.465 112.395C339.775 98.0877 337.843 85.3568 335.67 74.202C329.392 86.3268 322.028 100.876 313.577 117.851C305.368 134.583 297.4 151.558 289.673 168.775Z" fill="#D92661"/>
<path d="M377.321 310.307C370.56 310.307 364.523 308.003 359.211 303.396C354.141 298.788 351.606 291.271 351.606 280.844C351.291 274.5 352.33 267.385 353.779 257.2C355.469 247.016 357.642 235.982 360.298 224.1C362.954 211.975 365.852 199.972 368.99 188.09C372.371 176.207 375.63 165.659 378.769 156.444C381.908 146.987 384.685 139.955 387.099 135.347C390.238 129.77 393.136 126.375 395.792 125.162C398.689 123.708 401.466 122.98 404.122 122.98C408.951 122.98 413.418 124.435 417.522 127.345C421.869 130.255 424.042 136.681 424.042 146.623C424.042 150.503 423.317 156.808 421.869 165.538C420.42 174.025 418.609 183.967 416.436 195.364C414.263 206.762 411.848 218.523 409.192 230.647C406.778 242.772 404.363 254.29 401.949 265.203C399.776 275.872 397.965 284.845 396.516 292.12C395.309 298.182 392.773 302.668 388.91 305.578C385.288 308.731 381.425 310.307 377.321 310.307ZM418.971 86.9697C411.003 86.9697 403.639 84.666 396.878 80.0586C390.117 75.2087 386.737 67.8126 386.737 57.8704C386.737 49.6256 388.789 42.957 392.894 37.8646C396.999 32.7722 401.828 29.1348 407.381 26.9524C413.176 24.5274 418.247 23.315 422.593 23.315C426.939 23.315 431.768 24.285 437.08 26.2249C442.392 27.9224 446.98 31.196 450.843 36.0459C454.948 40.6533 457 47.3219 457 56.0517C457 61.8715 454.948 67.2064 450.843 72.0563C446.738 76.6637 441.668 80.3011 435.631 82.9685C429.836 85.6359 424.283 86.9697 418.971 86.9697Z" fill="black"/>
</g>
<defs>
<filter id="filter0_dd_107_22" x="0" y="0.25" width="462" height="325" filterUnits="userSpaceOnUse" color-interpolation-filters="sRGB">
<feFlood flood-opacity="0" result="BackgroundImageFix"/>
<feColorMatrix in="SourceAlpha" type="matrix" values="0 0 0 0 0 0 0 0 0 0 0 0 0 0 0 0 0 0 127 0" result="hardAlpha"/>
<feOffset dy="1.25"/>
<feGaussianBlur stdDeviation="2.5"/>
<feColorMatrix type="matrix" values="0 0 0 0 0 0 0 0 0 0 0 0 0 0 0 0 0 0 0.19 0"/>
<feBlend mode="normal" in2="BackgroundImageFix" result="effect1_dropShadow_107_22"/>
<feColorMatrix in="SourceAlpha" type="matrix" values="0 0 0 0 0 0 0 0 0 0 0 0 0 0 0 0 0 0 127 0" result="hardAlpha"/>
<feOffset dy="0.333333"/>
<feGaussianBlur stdDeviation="0.75"/>
<feColorMatrix type="matrix" values="0 0 0 0 0 0 0 0 0 0 0 0 0 0 0 0 0 0 0.039 0"/>
<feBlend mode="normal" in2="effect1_dropShadow_107_22" result="effect2_dropShadow_107_22"/>
<feBlend mode="normal" in="SourceGraphic" in2="effect2_dropShadow_107_22" result="shape"/>
</filter>
</defs>
</svg>
